<svg xmlns="http://www.w3.org/2000/svg" viewBox="0 0 1290.03 547.85" width="1258.03" height="515.85" style="background-color: rgb(248, 249, 250);"><defs><style>@import url('https://fonts.googleapis.com/css2?family=Caveat+Brush&amp;family=Source+Code+Pro&amp;family=Source+Sans+Pro&amp;family=Crimson+Pro&amp;display=block');</style></defs><g text-align="center" text-anchor="middle" transform="translate(16.00, 342.09) rotate(0.00, 150.26, 31.02)"><g id="74b9dadc-a6cf-4822-287d-477fe80dcb16_svg" class="tl-centered-g"><path d="M -0.01,19.52 Q -0.01,19.52 -0.06,16.72 -0.10,13.92 -0.11,10.34 -0.12,6.77 1.73,3.87 3.59,0.97 10.72,0.18 17.85,-0.61 25.98,-0.72 34.12,-0.83 42.55,-0.83 50.98,-0.82 59.49,-0.79 68.00,-0.75 76.53,-0.71 85.06,-0.67 93.59,-0.62 102.13,-0.58 110.66,-0.53 119.20,-0.49 127.74,-0.44 136.27,-0.40 144.81,-0.39 153.35,-0.38 161.88,-0.41 170.42,-0.44 178.96,-0.47 187.49,-0.51 196.03,-0.54 204.57,-0.57 213.10,-0.60 221.64,-0.63 230.18,-0.66 238.71,-0.69 247.25,-0.72 255.79,-0.75 264.32,-0.79 272.86,-0.82 281.42,-0.84 289.98,-0.87 294.12,0.87 298.25,2.63 299.36,6.11 300.47,9.60 300.59,13.30 300.71,17.00 300.63,20.68 300.55,24.36 300.51,28.03 300.48,31.71 300.52,35.40 300.57,39.08 300.61,42.76 300.65,46.44 300.67,50.18 300.70,53.93 298.84,56.87 296.99,59.82 289.86,60.65 282.73,61.48 274.59,61.63 266.44,61.77 258.00,61.79 249.57,61.82 241.05,61.81 232.53,61.81 224.00,61.80 215.46,61.78 206.92,61.77 198.38,61.75 189.83,61.74 181.29,61.72 172.75,61.71 164.20,61.69 155.66,61.72 147.11,61.74 138.57,61.80 130.03,61.86 121.48,61.92 112.94,61.98 104.40,62.05 95.85,62.11 87.31,62.17 78.77,62.23 70.22,62.29 61.68,62.35 53.14,62.41 44.59,62.47 36.05,62.54 27.51,62.60 18.94,62.65 10.37,62.71 6.23,60.96 2.08,59.21 0.99,55.67 -0.09,52.13 -0.20,48.37 -0.31,44.60 -0.21,40.85 -0.11,37.10 -0.06,33.35 -0.00,29.60 -0.03,25.84 -0.06,22.09 -0.06,17.04 -0.06,12.00 -0.02,11.77 0.01,11.54 0.13,11.33 0.24,11.12 0.42,10.96 0.59,10.80 0.81,10.71 1.03,10.61 1.26,10.59 1.50,10.57 1.73,10.63 1.96,10.68 2.16,10.81 2.36,10.93 2.51,11.12 2.66,11.30 2.74,11.52 2.83,11.74 2.84,11.98 2.85,12.22 2.78,12.44 2.71,12.67 2.57,12.86 2.44,13.06 2.25,13.20 2.05,13.34 1.83,13.41 1.60,13.48 1.37,13.48 1.13,13.47 0.91,13.39 0.68,13.31 0.50,13.16 0.31,13.02 0.18,12.82 0.05,12.62 -0.00,12.39 -0.06,12.16 -0.04,11.93 -0.02,11.69 0.06,11.47 0.15,11.25 0.31,11.08 0.47,10.90 0.67,10.78 0.88,10.66 1.11,10.61 1.34,10.57 1.58,10.60 1.81,10.63 2.02,10.73 2.24,10.83 2.41,11.00 2.57,11.17 2.68,11.38 2.79,11.59 2.82,11.82 2.86,12.06 2.86,12.06 2.86,12.06 2.67,17.09 2.49,22.13 2.33,25.88 2.17,29.63 2.12,33.37 2.07,37.10 2.15,40.79 2.24,44.47 2.48,47.92 2.72,51.36 3.40,54.18 4.07,57.00 7.27,58.21 10.46,59.43 18.98,59.44 27.50,59.45 36.04,59.46 44.58,59.48 53.13,59.50 61.67,59.51 70.22,59.53 78.76,59.54 87.30,59.56 95.85,59.57 104.39,59.59 112.93,59.60 121.48,59.62 130.02,59.63 138.57,59.65 147.11,59.66 155.65,59.64 164.20,59.62 172.74,59.56 181.28,59.49 189.83,59.43 198.37,59.37 206.91,59.31 215.45,59.25 223.99,59.18 232.52,59.12 241.03,59.05 249.54,58.98 257.96,58.88 266.38,58.78 274.40,58.56 282.43,58.35 288.80,57.91 295.17,57.47 296.32,55.55 297.47,53.64 297.60,50.02 297.72,46.40 297.87,42.72 298.01,39.04 298.15,35.37 298.29,31.69 298.33,28.03 298.36,24.36 298.26,20.75 298.16,17.14 297.90,13.76 297.65,10.39 296.96,7.63 296.27,4.86 293.08,3.63 289.88,2.40 281.37,2.36 272.86,2.32 264.32,2.28 255.78,2.23 247.25,2.18 238.71,2.14 230.17,2.09 221.64,2.05 213.10,2.00 204.56,1.96 196.03,1.91 187.49,1.87 178.95,1.82 170.42,1.78 161.88,1.73 153.34,1.68 144.81,1.68 136.27,1.67 127.73,1.70 119.20,1.73 110.66,1.76 102.13,1.79 93.59,1.83 85.06,1.86 76.53,1.89 68.00,1.93 59.50,1.97 50.99,2.01 42.58,2.08 34.17,2.15 26.15,2.33 18.13,2.52 11.77,2.93 5.40,3.33 4.25,5.21 3.10,7.08 2.96,10.53 2.82,13.97 2.68,16.77 2.53,19.56 2.51,19.72 2.49,19.87 2.43,20.01 2.38,20.15 2.29,20.28 2.20,20.40 2.08,20.50 1.96,20.60 1.82,20.67 1.69,20.74 1.54,20.78 1.39,20.81 1.23,20.81 1.08,20.81 0.93,20.77 0.78,20.73 0.64,20.65 0.51,20.58 0.40,20.47 0.28,20.37 0.20,20.24 0.11,20.11 0.06,19.97 0.01,19.82 -0.00,19.67 Z" fill="#1c7ed6" stroke="#1c7ed6" stroke-width="2" pointer-events="none"/></g><g fill="#1c7ed6" transform-origin="top left" transform="translate(150.265, 12.02)"><text y="14" letter-spacing="-0.84" font-size="28px" font-family="Caveat Brush" text-align="left" alignment-baseline="central">press-export-pdf</text></g></g><g text-align="center" text-anchor="middle" fill="#788492" transform="translate(890.03, 212.82) rotate(0.00, 192.00, 19.00)"><text y="14" letter-spacing="-0.84" font-size="28px" font-family="Caveat Brush" text-align="center" alignment-baseline="central" x="192">Export current vuepress site to a PDF file</text></g><g text-align="center" text-anchor="middle" fill="#788492" transform="translate(893.36, 306.36) rotate(0.00, 153.50, 19.00)"><text y="14" letter-spacing="-0.84" font-size="28px" font-family="Caveat Brush" text-align="center" alignment-baseline="central" x="153.5">Display environment information</text></g><g text-align="center" text-anchor="middle" fill="#788492" transform="translate(900.67, 395.58) rotate(0.00, 103.00, 19.00)"><text y="14" letter-spacing="-0.84" font-size="28px" font-family="Caveat Brush" text-align="center" alignment-baseline="central" x="103">Set path to config file</text></g><g text-align="center" text-anchor="middle" fill="#788492" transform="translate(906.12, 485.44) rotate(0.00, 90.50, 19.00)"><text y="14" letter-spacing="-0.84" font-size="28px" font-family="Caveat Brush" text-align="center" alignment-baseline="central" x="90.5">Enable debug mode</text></g><g text-align="center" text-anchor="middle" transform="translate(523.69, 293.86) rotate(0.00, 112.30, 27.41)"><g id="f5a41ef5-7abc-4e9e-0738-dc27390563c8_svg" class="tl-centered-g"><path d="M 224.92,37.28 Q 224.92,37.28 225.04,39.67 225.16,42.06 225.26,45.14 225.36,48.22 223.53,51.00 221.70,53.78 214.78,54.50 207.86,55.23 199.99,55.31 192.12,55.38 183.96,55.33 175.81,55.29 167.58,55.22 159.34,55.15 151.09,55.07 142.84,54.99 134.59,54.91 126.33,54.83 118.07,54.80 109.82,54.77 101.56,54.79 93.30,54.80 85.04,54.82 76.78,54.84 68.53,54.86 60.27,54.88 52.01,54.90 43.75,54.92 35.49,54.94 27.24,54.96 18.95,54.97 10.67,54.98 6.63,53.25 2.58,51.52 1.47,48.46 0.36,45.39 0.21,42.20 0.06,39.01 0.13,35.88 0.19,32.76 0.21,29.64 0.22,26.52 0.16,23.41 0.09,20.29 0.03,17.17 -0.02,14.06 -0.06,10.87 -0.10,7.69 1.73,4.89 3.58,2.09 10.47,1.31 17.37,0.54 25.21,0.42 33.05,0.30 41.17,0.29 49.29,0.28 57.49,0.31 65.68,0.33 73.90,0.35 82.12,0.38 90.34,0.41 98.56,0.44 106.78,0.42 115.00,0.41 123.23,0.34 131.45,0.27 139.67,0.20 147.89,0.13 156.12,0.06 164.34,-0.00 172.56,-0.07 180.78,-0.14 189.01,-0.21 197.23,-0.28 205.48,-0.34 213.72,-0.41 217.76,1.30 221.80,3.01 222.96,6.14 224.12,9.27 224.33,12.55 224.53,15.82 224.54,19.04 224.54,22.25 224.59,25.46 224.63,28.67 224.76,31.88 224.89,35.09 225.03,39.39 225.17,43.70 225.14,43.93 225.10,44.17 224.99,44.38 224.88,44.59 224.71,44.75 224.54,44.92 224.33,45.02 224.12,45.12 223.88,45.15 223.65,45.18 223.41,45.13 223.18,45.08 222.98,44.96 222.77,44.84 222.62,44.66 222.46,44.48 222.37,44.26 222.28,44.04 222.27,43.81 222.25,43.57 222.31,43.34 222.37,43.11 222.50,42.92 222.64,42.72 222.82,42.57 223.01,42.43 223.23,42.35 223.46,42.27 223.69,42.27 223.93,42.27 224.16,42.34 224.38,42.41 224.57,42.55 224.76,42.70 224.90,42.89 225.03,43.08 225.10,43.31 225.16,43.54 225.15,43.78 225.14,44.01 225.06,44.23 224.97,44.46 224.82,44.64 224.67,44.82 224.47,44.94 224.27,45.07 224.03,45.12 223.80,45.17 223.57,45.15 223.33,45.13 223.12,45.03 222.90,44.93 222.73,44.77 222.55,44.61 222.44,44.40 222.33,44.20 222.29,43.96 222.24,43.73 222.24,43.73 222.24,43.73 222.29,39.42 222.34,35.12 222.39,31.91 222.45,28.70 222.40,25.51 222.35,22.32 222.17,19.18 221.99,16.04 221.66,13.11 221.34,10.19 220.62,7.79 219.90,5.38 216.77,4.12 213.63,2.87 205.43,2.84 197.24,2.81 189.01,2.78 180.79,2.75 172.57,2.72 164.34,2.69 156.12,2.66 147.90,2.63 139.68,2.60 131.45,2.57 123.23,2.54 115.01,2.51 106.79,2.52 98.56,2.54 90.34,2.61 82.12,2.68 73.91,2.75 65.69,2.83 57.50,2.91 49.31,2.98 41.21,3.09 33.11,3.20 25.38,3.41 17.65,3.62 11.53,4.04 5.41,4.46 4.26,6.23 3.10,8.00 3.00,11.04 2.90,14.09 2.77,17.20 2.65,20.31 2.53,23.42 2.41,26.53 2.39,29.64 2.38,32.74 2.50,35.79 2.62,38.84 2.88,41.67 3.14,44.49 3.82,46.83 4.49,49.17 7.64,50.44 10.78,51.70 19.01,51.78 27.25,51.86 35.51,51.94 43.76,52.02 52.02,52.10 60.28,52.18 68.54,52.26 76.79,52.34 85.05,52.42 93.31,52.50 101.57,52.59 109.82,52.67 118.08,52.70 126.34,52.73 134.59,52.71 142.85,52.69 151.10,52.67 159.35,52.65 167.58,52.62 175.80,52.59 183.94,52.53 192.07,52.48 199.84,52.31 207.60,52.15 213.74,51.77 219.89,51.40 221.02,49.67 222.15,47.94 222.19,45.01 222.23,42.09 222.30,39.70 222.36,37.31 222.38,37.16 222.40,37.00 222.45,36.86 222.50,36.71 222.59,36.59 222.68,36.46 222.79,36.36 222.90,36.25 223.04,36.18 223.18,36.11 223.33,36.07 223.47,36.03 223.63,36.03 223.78,36.03 223.93,36.06 224.08,36.10 224.22,36.17 224.36,36.24 224.47,36.34 224.59,36.44 224.68,36.56 224.77,36.69 224.82,36.83 224.88,36.98 224.90,37.13 Z" fill="#788492" stroke="#788492" stroke-width="2" pointer-events="none"/></g><g fill="#788492" transform-origin="top left" transform="translate(112.3, 8.41)"><text y="14" letter-spacing="-0.84" font-size="28px" font-family="Caveat Brush" text-align="left" alignment-baseline="central">info</text></g></g><g text-align="center" text-anchor="middle" fill="#788492" transform="translate(475.93, 16.00) rotate(0.00, 132.50, 47.00)"><text y="14" letter-spacing="-0.84" font-size="28px" font-family="Caveat Brush" text-align="center" alignment-baseline="central" transform="scale(3.013172299168975)" x="43.97">command</text></g><g text-align="center" text-anchor="middle" transform="translate(523.94, 203.69) rotate(0.00, 112.42, 28.13)"><g id="605c0df0-10a7-461d-33a9-88239a5f24e1_svg" class="tl-centered-g"><path d="M 88.07,-0.55 Q 88.07,-0.55 94.21,-0.49 100.35,-0.43 108.05,-0.41 115.76,-0.39 123.87,-0.42 131.97,-0.45 140.18,-0.48 148.39,-0.51 156.62,-0.55 164.85,-0.58 173.09,-0.61 181.33,-0.64 189.58,-0.67 197.82,-0.70 206.08,-0.73 214.35,-0.75 218.40,0.98 222.46,2.72 223.55,5.92 224.63,9.11 224.76,12.46 224.88,15.81 224.79,19.11 224.71,22.41 224.67,25.70 224.63,28.99 224.67,32.28 224.72,35.57 224.76,38.87 224.80,42.16 224.82,45.52 224.84,48.88 222.99,51.72 221.14,54.56 214.24,55.35 207.34,56.15 199.49,56.27 191.64,56.40 183.52,56.41 175.39,56.43 167.19,56.41 158.98,56.40 150.76,56.37 142.54,56.35 134.32,56.32 126.09,56.30 117.86,56.32 109.63,56.35 101.41,56.42 93.18,56.50 84.95,56.57 76.72,56.65 68.50,56.72 60.27,56.80 52.04,56.87 43.81,56.94 35.59,57.02 27.36,57.09 19.11,57.16 10.85,57.23 6.80,55.50 2.75,53.78 1.64,50.52 0.53,47.27 0.38,43.85 0.24,40.43 0.30,37.05 0.36,33.67 0.37,30.30 0.38,26.93 0.31,23.56 0.24,20.18 0.17,16.81 0.10,13.44 0.06,10.00 0.01,6.56 1.86,3.69 3.71,0.82 10.62,0.06 17.52,-0.70 25.38,-0.79 33.24,-0.88 41.38,-0.85 49.53,-0.82 57.74,-0.76 65.96,-0.70 74.19,-0.63 82.43,-0.57 90.67,-0.50 98.91,-0.43 107.15,-0.41 115.39,-0.39 123.64,-0.42 131.88,-0.45 142.94,-0.48 154.01,-0.50 154.20,-0.47 154.40,-0.43 154.58,-0.34 154.76,-0.24 154.90,-0.10 155.04,0.04 155.12,0.22 155.21,0.41 155.23,0.61 155.25,0.81 155.21,1.01 155.16,1.20 155.06,1.38 154.95,1.55 154.80,1.68 154.64,1.81 154.46,1.89 154.27,1.96 154.07,1.97 153.86,1.98 153.67,1.93 153.47,1.87 153.31,1.76 153.14,1.64 153.02,1.48 152.90,1.32 152.83,1.13 152.77,0.94 152.77,0.74 152.77,0.53 152.83,0.34 152.90,0.15 153.02,-0.00 153.15,-0.16 153.31,-0.27 153.48,-0.39 153.68,-0.44 153.87,-0.49 154.07,-0.48 154.27,-0.47 154.46,-0.40 154.65,-0.32 154.80,-0.19 154.96,-0.06 155.06,0.11 155.16,0.28 155.21,0.48 155.25,0.67 155.23,0.88 155.21,1.08 155.12,1.26 155.04,1.44 154.90,1.59 154.76,1.74 154.58,1.83 154.40,1.92 154.20,1.96 154.00,1.99 154.00,1.99 154.00,1.99 142.94,1.91 131.87,1.84 123.63,1.77 115.39,1.70 107.15,1.68 98.90,1.66 90.66,1.69 82.42,1.72 74.19,1.76 65.95,1.79 57.74,1.83 49.53,1.87 41.41,1.94 33.29,2.01 25.55,2.20 17.80,2.38 11.66,2.78 5.52,3.18 4.38,5.02 3.23,6.85 3.13,10.15 3.03,13.46 2.91,16.83 2.80,20.20 2.68,23.57 2.56,26.94 2.55,30.29 2.54,33.65 2.67,36.96 2.79,40.26 3.06,43.34 3.33,46.42 4.01,48.95 4.69,51.48 7.82,52.71 10.94,53.95 19.14,53.97 27.35,53.99 35.58,54.02 43.80,54.04 52.03,54.07 60.26,54.10 68.49,54.12 76.72,54.15 84.94,54.17 93.17,54.20 101.40,54.22 109.63,54.25 117.86,54.22 126.08,54.20 134.31,54.12 142.53,54.05 150.75,53.97 158.97,53.90 167.17,53.81 175.37,53.73 183.47,53.61 191.58,53.50 199.31,53.28 207.05,53.06 213.18,52.63 219.30,52.20 220.46,50.38 221.62,48.56 221.74,45.34 221.87,42.11 222.01,38.82 222.16,35.54 222.30,32.25 222.45,28.96 222.48,25.69 222.52,22.41 222.42,19.18 222.32,15.96 222.08,12.96 221.83,9.96 221.17,7.49 220.51,5.02 217.38,3.77 214.25,2.52 206.03,2.45 197.81,2.39 189.57,2.32 181.33,2.25 173.09,2.18 164.85,2.11 156.61,2.04 148.38,1.98 140.17,1.91 131.97,1.84 123.86,1.77 115.76,1.70 108.05,1.68 100.34,1.66 94.20,1.70 88.06,1.74 87.92,1.72 87.79,1.70 87.66,1.65 87.53,1.60 87.41,1.52 87.30,1.45 87.21,1.34 87.12,1.24 87.05,1.11 86.99,0.99 86.95,0.86 86.92,0.72 86.92,0.58 86.92,0.44 86.96,0.31 86.99,0.18 87.05,0.05 87.12,-0.06 87.21,-0.16 87.30,-0.27 87.42,-0.35 87.53,-0.42 87.66,-0.47 87.79,-0.52 87.93,-0.54 Z" fill="#788492" stroke="#788492" stroke-width="2" pointer-events="none"/></g><g fill="#788492" transform-origin="top left" transform="translate(112.42, 9.12)"><text y="14" letter-spacing="-0.84" font-size="28px" font-family="Caveat Brush" text-align="left" alignment-baseline="central">export [sourceDir]</text></g></g><g text-align="center" text-anchor="middle" transform="translate(524.23, 386.08) rotate(0.00, 112.13, 27.41)"><g id="0ea2912e-add3-43e5-3afe-c89f157d389b_svg" class="tl-centered-g"><path d="M -0.75,18.01 Q -0.75,18.01 -0.89,15.67 -1.02,13.33 -1.14,10.31 -1.27,7.29 0.55,4.52 2.37,1.76 9.30,0.99 16.23,0.23 24.12,0.11 32.01,0.00 40.18,-0.00 48.36,-0.00 56.61,0.01 64.86,0.03 73.14,0.06 81.41,0.09 89.68,0.12 97.96,0.15 106.24,0.13 114.52,0.12 122.79,0.05 131.07,-0.01 139.35,-0.08 147.63,-0.15 155.91,-0.22 164.18,-0.28 172.46,-0.35 180.74,-0.42 189.02,-0.49 197.30,-0.56 205.60,-0.62 213.90,-0.69 217.96,1.02 222.01,2.73 223.16,5.87 224.32,9.01 224.52,12.30 224.72,15.58 224.71,18.81 224.70,22.04 224.74,25.26 224.78,28.48 224.90,31.70 225.02,34.92 225.13,38.14 225.25,41.36 225.35,44.65 225.44,47.95 223.61,50.78 221.77,53.62 214.85,54.37 207.94,55.12 200.06,55.21 192.19,55.29 184.03,55.25 175.87,55.22 167.63,55.16 159.40,55.10 151.15,55.03 142.89,54.96 134.64,54.89 126.38,54.81 118.12,54.79 109.86,54.77 101.60,54.80 93.34,54.83 85.08,54.85 76.82,54.88 68.56,54.91 60.30,54.94 52.03,54.97 43.77,54.99 35.51,55.02 27.25,55.05 18.97,55.07 10.69,55.10 6.65,53.38 2.61,51.66 1.42,48.58 0.24,45.49 0.01,42.28 -0.21,39.06 -0.24,35.90 -0.26,32.74 -0.33,29.60 -0.40,26.45 -0.56,23.31 -0.71,20.17 -0.88,15.95 -1.05,11.73 -1.02,11.49 -0.98,11.26 -0.88,11.05 -0.77,10.84 -0.60,10.67 -0.43,10.50 -0.22,10.40 -0.00,10.30 0.22,10.27 0.46,10.24 0.69,10.28 0.92,10.33 1.13,10.45 1.33,10.57 1.49,10.75 1.64,10.92 1.74,11.14 1.83,11.36 1.84,11.60 1.86,11.83 1.80,12.06 1.74,12.29 1.61,12.49 1.48,12.69 1.30,12.84 1.11,12.98 0.89,13.06 0.67,13.14 0.43,13.15 0.19,13.15 -0.02,13.08 -0.25,13.01 -0.44,12.87 -0.63,12.73 -0.77,12.53 -0.90,12.34 -0.97,12.11 -1.04,11.89 -1.03,11.65 -1.02,11.41 -0.94,11.19 -0.85,10.97 -0.70,10.79 -0.55,10.60 -0.35,10.48 -0.15,10.35 0.07,10.30 0.30,10.24 0.53,10.26 0.77,10.28 0.99,10.38 1.20,10.47 1.38,10.63 1.55,10.79 1.67,11.00 1.78,11.21 1.83,11.44 1.87,11.67 1.87,11.67 1.87,11.67 1.85,15.90 1.84,20.12 1.80,23.26 1.77,26.40 1.84,29.53 1.91,32.66 2.12,35.74 2.33,38.82 2.67,41.68 3.01,44.54 3.75,46.90 4.48,49.26 7.64,50.54 10.79,51.81 19.03,51.88 27.26,51.95 35.52,52.02 43.78,52.09 52.04,52.17 60.30,52.24 68.56,52.31 76.82,52.38 85.08,52.45 93.34,52.53 101.60,52.60 109.86,52.67 118.12,52.69 126.38,52.71 134.64,52.69 142.90,52.66 151.15,52.63 159.40,52.60 167.63,52.56 175.86,52.52 184.00,52.45 192.14,52.39 199.90,52.21 207.67,52.03 213.81,51.64 219.96,51.25 221.09,49.46 222.23,47.68 222.27,44.53 222.32,41.38 222.39,38.16 222.46,34.94 222.53,31.72 222.59,28.51 222.55,25.30 222.51,22.10 222.34,18.94 222.17,15.79 221.85,12.86 221.54,9.93 220.82,7.51 220.11,5.10 216.96,3.84 213.81,2.59 205.56,2.56 197.30,2.53 189.03,2.50 180.75,2.47 172.47,2.44 164.19,2.41 155.91,2.37 147.63,2.34 139.36,2.31 131.08,2.28 122.80,2.25 114.52,2.22 106.24,2.23 97.97,2.25 89.69,2.32 81.41,2.39 73.14,2.46 64.87,2.53 56.63,2.61 48.38,2.69 40.22,2.79 32.07,2.90 24.29,3.11 16.51,3.32 10.35,3.72 4.19,4.13 3.06,5.84 1.93,7.56 1.91,10.42 1.90,13.28 1.85,15.62 1.80,17.97 1.78,18.12 1.76,18.27 1.71,18.42 1.66,18.56 1.57,18.69 1.49,18.82 1.38,18.93 1.26,19.03 1.13,19.10 0.99,19.18 0.84,19.22 0.69,19.26 0.54,19.26 0.39,19.26 0.24,19.23 0.08,19.19 -0.04,19.12 -0.18,19.06 -0.30,18.96 -0.41,18.86 -0.50,18.73 -0.59,18.61 -0.65,18.46 -0.71,18.32 -0.73,18.17 Z" fill="#788492" stroke="#788492" stroke-width="2" pointer-events="none"/></g><g fill="#788492" transform-origin="top left" transform="translate(112.125, 8.41)"><text y="14" letter-spacing="-0.84" font-size="28px" font-family="Caveat Brush" text-align="left" alignment-baseline="central">-c, --config &lt;config&gt;</text></g></g><g text-align="center" text-anchor="middle" transform="translate(525.35, 477.02) rotate(0.00, 112.30, 27.41)"><g id="cce6d1b2-75cf-4dce-2188-06e39d0d5b9d_svg" class="tl-centered-g"><path d="M 87.14,0.01 Q 87.14,0.01 93.31,0.03 99.48,0.04 107.23,0.00 114.98,-0.03 123.12,-0.13 131.27,-0.22 139.52,-0.32 147.77,-0.41 156.05,-0.51 164.32,-0.60 172.61,-0.70 180.89,-0.80 189.17,-0.89 197.46,-0.99 205.77,-1.08 214.08,-1.17 218.14,0.53 222.20,2.25 223.34,5.43 224.47,8.62 224.65,11.96 224.82,15.29 224.79,18.58 224.75,21.87 224.77,25.15 224.78,28.43 224.88,31.71 224.97,35.00 225.06,38.28 225.15,41.56 225.23,44.91 225.30,48.26 223.46,51.11 221.62,53.96 214.68,54.73 207.74,55.51 199.84,55.62 191.95,55.73 183.76,55.73 175.58,55.72 167.32,55.69 159.06,55.65 150.79,55.61 142.51,55.57 134.23,55.53 125.94,55.49 117.66,55.49 109.37,55.50 101.09,55.55 92.81,55.61 84.52,55.67 76.24,55.72 67.95,55.78 59.67,55.83 51.38,55.89 43.10,55.95 34.81,56.00 26.53,56.06 18.22,56.11 9.91,56.16 5.86,54.44 1.80,52.72 0.66,49.59 -0.46,46.46 -0.64,43.18 -0.82,39.91 -0.78,36.69 -0.75,33.48 -0.77,30.27 -0.78,27.06 -0.88,23.85 -0.98,20.65 -1.07,17.44 -1.16,14.23 -1.24,10.95 -1.31,7.67 0.52,4.85 2.35,2.02 9.29,1.22 16.23,0.41 24.13,0.27 32.03,0.12 40.21,0.09 48.39,0.05 56.65,0.05 64.91,0.04 73.19,0.04 81.47,0.04 89.75,0.05 98.04,0.05 106.32,0.01 114.61,-0.03 122.89,-0.13 131.18,-0.22 142.30,-0.33 153.42,-0.44 153.62,-0.41 153.82,-0.38 154.00,-0.29 154.18,-0.19 154.32,-0.05 154.46,0.09 154.54,0.27 154.63,0.45 154.65,0.66 154.68,0.86 154.63,1.05 154.59,1.25 154.49,1.43 154.38,1.60 154.23,1.73 154.08,1.86 153.89,1.94 153.70,2.01 153.50,2.03 153.30,2.04 153.10,1.99 152.91,1.93 152.74,1.82 152.57,1.71 152.45,1.55 152.33,1.39 152.26,1.20 152.19,1.00 152.19,0.80 152.19,0.60 152.26,0.41 152.32,0.22 152.44,0.05 152.56,-0.10 152.73,-0.21 152.90,-0.33 153.09,-0.38 153.28,-0.44 153.49,-0.43 153.69,-0.42 153.88,-0.34 154.07,-0.27 154.22,-0.14 154.37,-0.01 154.48,0.15 154.59,0.33 154.63,0.52 154.67,0.72 154.65,0.92 154.63,1.12 154.55,1.31 154.46,1.49 154.33,1.64 154.19,1.79 154.01,1.88 153.83,1.98 153.63,2.01 153.43,2.05 153.43,2.05 153.43,2.05 142.31,2.06 131.19,2.07 122.90,2.06 114.62,2.06 106.33,2.11 98.05,2.15 89.77,2.25 81.48,2.34 73.21,2.44 64.93,2.54 56.67,2.65 48.42,2.75 40.26,2.89 32.10,3.02 24.31,3.26 16.52,3.50 10.35,3.94 4.19,4.38 3.04,6.17 1.90,7.96 1.83,11.09 1.75,14.23 1.66,17.44 1.57,20.64 1.48,23.85 1.39,27.05 1.41,30.24 1.42,33.44 1.57,36.58 1.72,39.72 2.02,42.64 2.31,45.55 3.01,47.96 3.71,50.37 6.86,51.62 10.01,52.88 18.27,52.92 26.53,52.96 34.81,53.00 43.10,53.05 51.38,53.09 59.67,53.13 67.95,53.18 76.24,53.22 84.52,53.27 92.80,53.31 101.09,53.35 109.37,53.40 117.66,53.39 125.94,53.39 134.22,53.33 142.51,53.27 150.78,53.21 159.06,53.15 167.31,53.09 175.57,53.02 183.73,52.93 191.89,52.83 199.68,52.63 207.46,52.43 213.63,52.01 219.80,51.59 220.94,49.79 222.08,47.98 222.15,44.77 222.23,41.56 222.32,38.28 222.41,35.00 222.50,31.72 222.59,28.44 222.58,25.18 222.57,21.91 222.42,18.70 222.27,15.48 221.98,12.49 221.68,9.50 220.98,7.04 220.28,4.58 217.14,3.34 214.00,2.10 205.74,2.10 197.48,2.10 189.19,2.10 180.91,2.09 172.62,2.09 164.34,2.09 156.06,2.08 147.79,2.08 139.53,2.07 131.28,2.07 123.14,2.06 114.99,2.06 107.24,2.10 99.49,2.14 93.32,2.23 87.15,2.31 87.01,2.30 86.87,2.28 86.74,2.23 86.61,2.18 86.50,2.11 86.39,2.03 86.29,1.92 86.20,1.82 86.14,1.70 86.07,1.58 86.04,1.44 86.00,1.31 86.00,1.17 86.00,1.03 86.03,0.89 86.07,0.76 86.13,0.64 86.19,0.51 86.28,0.41 86.38,0.31 86.49,0.23 86.60,0.15 86.73,0.10 86.86,0.05 87.00,0.03 Z" fill="#788492" stroke="#788492" stroke-width="2" pointer-events="none"/></g><g fill="#788492" transform-origin="top left" transform="translate(112.3, 8.41)"><text y="14" letter-spacing="-0.84" font-size="28px" font-family="Caveat Brush" text-align="left" alignment-baseline="central">--debug</text></g></g><g id="0d03fac6-3d73-46fb-0963-130af0c8b922_svg" class="tl-centered-g" transform="translate(751.12, 232.02) rotate(0.00, 65.45, 0.50)"><defs><mask id="0d03fac6-3d73-46fb-0963-130af0c8b922_clip"><rect x="-100" y="-100" width="330.90" height="201" fill="white"/><rect x="65.45" y="0.07" width="0" height="0" rx="4" ry="4" fill="black" opacity="1"/></mask></defs><g pointer-events="none" opacity="1" mask=""><path d="M -0.00,-0.78 Q -0.00,-0.78 16.11,-0.76 32.22,-0.74 48.34,-0.73 64.45,-0.72 80.56,-0.71 96.68,-0.71 112.79,-0.71 128.90,-0.71 129.02,-0.69 129.13,-0.67 129.23,-0.62 129.34,-0.56 129.42,-0.48 129.50,-0.39 129.55,-0.29 129.59,-0.18 129.61,-0.07 129.62,0.04 129.59,0.15 129.57,0.26 129.51,0.36 129.45,0.46 129.36,0.53 129.27,0.61 129.17,0.65 129.06,0.70 128.94,0.70 128.83,0.71 128.72,0.68 128.61,0.65 128.51,0.58 128.41,0.52 128.34,0.42 128.27,0.33 128.24,0.22 128.20,0.11 128.20,0.00 128.20,-0.11 128.24,-0.22 128.27,-0.33 128.34,-0.42 128.41,-0.51 128.51,-0.58 128.60,-0.64 128.72,-0.67 128.83,-0.70 128.94,-0.70 129.06,-0.69 129.17,-0.65 129.27,-0.61 129.36,-0.53 129.45,-0.46 129.51,-0.36 129.57,-0.26 129.59,-0.15 129.62,-0.03 129.61,0.07 129.59,0.19 129.55,0.29 129.50,0.40 129.42,0.48 129.34,0.57 129.24,0.62 129.13,0.67 129.02,0.69 128.91,0.71 128.91,0.71 128.91,0.71 112.79,0.74 96.68,0.77 80.56,0.81 64.45,0.85 48.34,0.89 32.22,0.93 16.11,0.99 0.00,1.04 -0.10,1.03 -0.21,1.01 -0.32,0.98 -0.42,0.94 -0.51,0.87 -0.60,0.81 -0.68,0.73 -0.75,0.65 -0.80,0.55 -0.85,0.45 -0.88,0.34 -0.90,0.24 -0.90,0.13 -0.90,0.02 -0.88,-0.08 -0.85,-0.19 -0.80,-0.29 -0.75,-0.38 -0.68,-0.47 -0.60,-0.55 -0.51,-0.61 -0.42,-0.68 -0.32,-0.72 -0.22,-0.75 -0.11,-0.77 Z" fill="#c6cbd1" stroke="#c6cbd1" stroke-width="2.11" stroke-dasharray="none" stroke-dashoffset="none" stroke-linecap="round" stroke-linejoin="round" pointer-events="stroke"/><g><path d="M 117.04,-7.986235976345538 L 130.91,0 117.06,8.013756134495168" fill="none" stroke="#c6cbd1" stroke-width="4.23" stroke-linecap="round" stroke-linejoin="round" pointer-events="none"/></g></g></g><g id="550828fd-0b76-4d80-042f-a413d10e5f1b_svg" class="tl-centered-g" transform="translate(751.29, 323.07) rotate(0.00, 67.03, 0.52)"><defs><mask id="550828fd-0b76-4d80-042f-a413d10e5f1b_clip"><rect x="-100" y="-100" width="334.07" height="201.04" fill="white"/><rect x="67.03" y="0.52" width="0" height="0" rx="4" ry="4" fill="black" opacity="1"/></mask></defs><g pointer-events="none" opacity="1" mask=""><path d="M 0.00,-0.91 Q 0.00,-0.91 16.51,-0.74 33.02,-0.58 49.53,-0.42 66.04,-0.27 82.54,-0.12 99.05,0.02 115.56,0.16 132.07,0.31 132.18,0.33 132.30,0.35 132.40,0.40 132.50,0.46 132.58,0.54 132.66,0.62 132.70,0.73 132.75,0.83 132.76,0.95 132.78,1.06 132.75,1.18 132.72,1.29 132.66,1.39 132.60,1.48 132.52,1.56 132.43,1.63 132.32,1.67 132.21,1.72 132.10,1.72 131.98,1.73 131.87,1.69 131.76,1.66 131.67,1.60 131.57,1.53 131.50,1.44 131.43,1.35 131.40,1.24 131.36,1.13 131.36,1.01 131.36,0.90 131.40,0.79 131.44,0.68 131.51,0.59 131.58,0.50 131.68,0.43 131.77,0.37 131.88,0.34 131.99,0.31 132.11,0.32 132.22,0.33 132.33,0.37 132.44,0.41 132.52,0.49 132.61,0.56 132.67,0.66 132.73,0.76 132.75,0.87 132.78,0.99 132.76,1.10 132.75,1.22 132.70,1.32 132.65,1.42 132.57,1.51 132.49,1.59 132.39,1.64 132.29,1.70 132.17,1.71 132.06,1.73 132.06,1.73 132.06,1.73 115.55,1.62 99.04,1.51 82.53,1.40 66.02,1.29 49.51,1.19 33.01,1.09 16.50,1.00 -0.00,0.91 -0.11,0.89 -0.22,0.88 -0.32,0.84 -0.43,0.80 -0.52,0.74 -0.61,0.67 -0.68,0.59 -0.75,0.51 -0.80,0.41 -0.85,0.31 -0.88,0.21 -0.90,0.10 -0.90,-0.00 -0.90,-0.11 -0.87,-0.22 -0.85,-0.33 -0.79,-0.42 -0.74,-0.52 -0.67,-0.60 -0.60,-0.68 -0.50,-0.75 -0.41,-0.81 -0.31,-0.85 -0.21,-0.88 -0.10,-0.90 Z" fill="#c6cbd1" stroke="#c6cbd1" stroke-width="2.11" stroke-dasharray="none" stroke-dashoffset="none" stroke-linecap="round" stroke-linejoin="round" pointer-events="stroke"/><g><path d="M 120.27,-7.067242193755219 L 134.07,1.04 120.15,8.932276441978644" fill="none" stroke="#c6cbd1" stroke-width="4.23" stroke-linecap="round" stroke-linejoin="round" pointer-events="none"/></g></g></g><g id="c7a8ad24-173a-4cde-2770-fa654ce34a88_svg" class="tl-centered-g" transform="translate(750.94, 415.34) rotate(0.00, 70.36, 0.63)"><defs><mask id="c7a8ad24-173a-4cde-2770-fa654ce34a88_clip"><rect x="-100" y="-100" width="340.73" height="201.26" fill="white"/><rect x="70.36" y="0.63" width="0" height="0" rx="4" ry="4" fill="black" opacity="1"/></mask></defs><g pointer-events="none" opacity="1" mask=""><path d="M -0.00,0.28 Q -0.00,0.28 17.33,0.16 34.67,0.04 52.01,-0.08 69.35,-0.21 86.69,-0.35 104.04,-0.49 121.38,-0.63 138.72,-0.77 138.85,-0.75 138.97,-0.73 139.09,-0.67 139.20,-0.61 139.29,-0.52 139.38,-0.43 139.43,-0.31 139.49,-0.20 139.50,-0.07 139.52,0.05 139.49,0.17 139.47,0.30 139.40,0.41 139.34,0.52 139.24,0.61 139.14,0.69 139.02,0.74 138.90,0.79 138.77,0.80 138.65,0.80 138.52,0.77 138.40,0.74 138.29,0.67 138.18,0.59 138.10,0.49 138.03,0.39 137.98,0.27 137.94,0.15 137.94,0.02 137.94,-0.10 137.98,-0.22 138.02,-0.34 138.10,-0.45 138.17,-0.55 138.28,-0.62 138.38,-0.70 138.51,-0.73 138.63,-0.77 138.76,-0.76 138.89,-0.76 139.01,-0.71 139.13,-0.66 139.23,-0.58 139.33,-0.50 139.39,-0.39 139.46,-0.28 139.49,-0.15 139.52,-0.03 139.51,0.09 139.49,0.22 139.44,0.34 139.39,0.45 139.30,0.55 139.21,0.64 139.10,0.70 138.99,0.76 138.86,0.79 138.73,0.81 138.73,0.81 138.73,0.81 121.39,0.98 104.05,1.15 86.71,1.32 69.37,1.49 52.03,1.67 34.69,1.85 17.34,2.04 0.00,2.23 -0.10,2.22 -0.22,2.20 -0.33,2.16 -0.44,2.12 -0.54,2.06 -0.63,1.99 -0.71,1.90 -0.79,1.82 -0.85,1.71 -0.90,1.61 -0.93,1.49 -0.96,1.38 -0.96,1.26 -0.96,1.15 -0.94,1.03 -0.91,0.92 -0.86,0.81 -0.80,0.71 -0.72,0.62 -0.65,0.53 -0.55,0.46 -0.46,0.40 -0.35,0.35 -0.24,0.31 -0.12,0.30 Z" fill="#c6cbd1" stroke="#c6cbd1" stroke-width="2.11" stroke-dasharray="none" stroke-dashoffset="none" stroke-linecap="round" stroke-linejoin="round" pointer-events="stroke"/><g><path d="M 126.80,-7.875623574214912 L 140.73,0 126.94,8.123735169562437" fill="none" stroke="#c6cbd1" stroke-width="4.23" stroke-linecap="round" stroke-linejoin="round" pointer-events="none"/></g></g></g><g id="b51a9624-fcf4-437e-3223-c998248b629a_svg" class="tl-centered-g" transform="translate(751.10, 503.94) rotate(0.00, 70.95, 0.50)"><defs><mask id="b51a9624-fcf4-437e-3223-c998248b629a_clip"><rect x="-100" y="-100" width="341.90" height="201" fill="white"/><rect x="70.95" y="0.08" width="0" height="0" rx="4" ry="4" fill="black" opacity="1"/></mask></defs><g pointer-events="none" opacity="1" mask=""><path d="M -0.00,-0.86 Q -0.00,-0.86 17.48,-0.85 34.97,-0.85 52.46,-0.85 69.95,-0.85 87.44,-0.86 104.93,-0.86 122.42,-0.88 139.90,-0.89 140.05,-0.86 140.19,-0.84 140.32,-0.77 140.45,-0.70 140.54,-0.60 140.64,-0.50 140.71,-0.36 140.77,-0.23 140.78,-0.09 140.80,0.04 140.77,0.19 140.74,0.33 140.66,0.45 140.59,0.58 140.48,0.67 140.37,0.76 140.23,0.82 140.10,0.87 139.95,0.88 139.81,0.89 139.67,0.85 139.53,0.81 139.41,0.73 139.29,0.65 139.20,0.53 139.12,0.42 139.07,0.28 139.02,0.14 139.02,0.00 139.02,-0.14 139.07,-0.27 139.11,-0.41 139.20,-0.53 139.29,-0.64 139.41,-0.72 139.53,-0.80 139.67,-0.84 139.81,-0.88 139.95,-0.87 140.10,-0.87 140.23,-0.81 140.37,-0.76 140.48,-0.67 140.59,-0.57 140.66,-0.45 140.74,-0.32 140.77,-0.18 140.80,-0.04 140.78,0.09 140.77,0.24 140.71,0.37 140.65,0.50 140.55,0.60 140.45,0.71 140.32,0.78 140.19,0.84 140.05,0.87 139.91,0.89 139.91,0.89 139.91,0.89 122.42,0.92 104.93,0.96 87.44,1.00 69.95,1.03 52.46,1.08 34.97,1.12 17.49,1.17 0.00,1.22 -0.12,1.21 -0.24,1.19 -0.36,1.15 -0.48,1.10 -0.58,1.03 -0.69,0.96 -0.77,0.86 -0.85,0.77 -0.91,0.66 -0.97,0.55 -1.00,0.42 -1.03,0.30 -1.03,0.18 -1.03,0.05 -1.00,-0.06 -0.97,-0.18 -0.91,-0.30 -0.86,-0.41 -0.77,-0.50 -0.69,-0.60 -0.59,-0.67 -0.48,-0.74 -0.36,-0.78 -0.25,-0.83 -0.12,-0.85 Z" fill="#c6cbd1" stroke="#c6cbd1" stroke-width="2.11" stroke-dasharray="none" stroke-dashoffset="none" stroke-linecap="round" stroke-linejoin="round" pointer-events="stroke"/><g><path d="M 128.04,-7.982417980337503 L 141.91,0 128.06,8.017569148775618" fill="none" stroke="#c6cbd1" stroke-width="4.23" stroke-linecap="round" stroke-linejoin="round" pointer-events="none"/></g></g></g><g id="912b1489-6606-40e3-1b4d-63b882e29c7b_svg" class="tl-centered-g" transform="translate(320.13, 232.70) rotate(0.00, 88.02, 49.50)"><defs><mask id="912b1489-6606-40e3-1b4d-63b882e29c7b_clip"><rect x="-100" y="-100" width="376.04" height="299.00" fill="white"/><rect x="74.38" y="25.24" width="0" height="0" rx="4" ry="4" fill="black" opacity="1"/></mask></defs><g pointer-events="none" opacity="1" mask=""><path d="M -7.04,108.61 Q -7.04,108.61 -5.84,105.67 -4.63,102.72 -2.71,99.31 -0.79,95.89 2.03,91.37 4.86,86.84 8.69,81.46 12.52,76.08 17.43,70.14 22.34,64.20 28.33,58.05 34.32,51.90 41.33,45.89 48.33,39.89 56.20,34.33 64.07,28.78 72.56,23.95 81.06,19.13 89.85,15.20 98.64,11.27 107.40,8.32 116.16,5.37 124.52,3.36 132.87,1.36 140.49,0.18 148.11,-0.99 154.71,-1.53 161.31,-2.08 166.66,-2.19 172.01,-2.30 175.94,-2.21 179.87,-2.11 183.08,-1.92 186.30,-1.72 186.65,-1.64 187.01,-1.56 187.32,-1.36 187.62,-1.17 187.85,-0.89 188.09,-0.61 188.21,-0.27 188.34,0.06 188.36,0.43 188.37,0.79 188.27,1.14 188.16,1.49 187.95,1.79 187.74,2.09 187.45,2.30 187.16,2.52 186.81,2.63 186.46,2.74 186.10,2.73 185.73,2.72 185.39,2.60 185.05,2.48 184.76,2.25 184.48,2.03 184.28,1.72 184.08,1.42 183.99,1.07 183.90,0.71 183.92,0.35 183.95,-0.00 184.09,-0.34 184.23,-0.67 184.47,-0.95 184.71,-1.22 185.03,-1.40 185.34,-1.59 185.70,-1.66 186.06,-1.73 186.42,-1.68 186.78,-1.64 187.11,-1.48 187.43,-1.32 187.69,-1.07 187.95,-0.81 188.12,-0.49 188.28,-0.16 188.33,0.19 188.39,0.55 188.32,0.91 188.26,1.27 188.08,1.58 187.90,1.90 187.64,2.15 187.37,2.39 187.03,2.54 186.70,2.69 186.34,2.72 185.98,2.75 185.98,2.75 185.98,2.75 182.87,2.56 179.76,2.37 175.93,2.28 172.10,2.18 166.89,2.29 161.68,2.40 155.24,2.92 148.80,3.45 141.36,4.59 133.92,5.73 125.75,7.69 117.59,9.64 109.03,12.51 100.47,15.38 91.87,19.21 83.27,23.04 74.97,27.75 66.66,32.45 58.96,37.88 51.26,43.30 44.40,49.18 37.55,55.05 31.68,61.06 25.81,67.07 21.00,72.88 16.19,78.69 12.43,83.96 8.67,89.23 5.90,93.66 3.13,98.10 1.24,101.44 -0.64,104.79 -2.34,107.47 -4.05,110.16 -4.16,110.33 -4.27,110.50 -4.43,110.63 -4.58,110.77 -4.76,110.86 -4.94,110.96 -5.13,111.01 -5.33,111.06 -5.53,111.06 -5.74,111.06 -5.94,111.01 -6.13,110.97 -6.31,110.87 -6.50,110.78 -6.65,110.65 -6.80,110.51 -6.92,110.35 -7.03,110.18 -7.11,109.99 -7.18,109.80 -7.21,109.60 -7.23,109.40 -7.21,109.19 -7.19,108.99 -7.12,108.80 Z" fill="#ff9433" stroke="#ff9433" stroke-width="0" stroke-dasharray="none" stroke-dashoffset="none" stroke-linecap="round" stroke-linejoin="round" pointer-events="none"/><g><path d="M 174.46,-8.1698943834999 L 187.81,0.65 173.49,7.801069082692813" fill="none" stroke="#ff9433" stroke-width="4.23" stroke-linecap="round" stroke-linejoin="round" pointer-events="none"/></g></g></g><g id="18df2717-c54e-4b41-181a-c4a49b1ce5c3_svg" class="tl-centered-g" transform="translate(319.59, 414.52) rotate(0.00, 89.05, 46.20)"><defs><mask id="18df2717-c54e-4b41-181a-c4a49b1ce5c3_clip"><rect x="-100" y="-100" width="378.09" height="292.40" fill="white"/><rect x="75.52" y="72.07" width="0" height="0" rx="4" ry="4" fill="black" opacity="1"/></mask></defs><g pointer-events="none" opacity="1" mask=""><path d="M -3.95,-11.17 Q -3.95,-11.17 -2.90,-9.64 -1.86,-8.11 -0.68,-5.91 0.49,-3.71 2.56,-0.15 4.63,3.39 8.02,8.51 11.40,13.62 16.68,20.36 21.97,27.10 29.92,35.23 37.88,43.37 49.48,52.25 61.08,61.13 76.41,69.08 91.75,77.03 105.66,81.37 119.57,85.72 130.77,87.53 141.98,89.34 150.49,89.78 159.00,90.22 165.11,90.04 171.22,89.87 175.30,89.52 179.38,89.17 181.83,88.87 184.29,88.57 186.06,88.31 187.84,88.05 188.20,88.05 188.56,88.05 188.91,88.17 189.25,88.28 189.54,88.50 189.84,88.72 190.04,89.02 190.25,89.32 190.34,89.67 190.44,90.02 190.42,90.39 190.41,90.75 190.27,91.09 190.14,91.43 189.90,91.70 189.67,91.98 189.36,92.17 189.05,92.36 188.69,92.44 188.34,92.52 187.97,92.48 187.61,92.44 187.28,92.29 186.95,92.14 186.69,91.89 186.42,91.64 186.25,91.32 186.08,91.00 186.02,90.64 185.96,90.28 186.01,89.92 186.07,89.56 186.24,89.24 186.41,88.92 186.67,88.67 186.94,88.41 187.27,88.26 187.60,88.11 187.96,88.07 188.32,88.03 188.68,88.10 189.03,88.18 189.35,88.37 189.66,88.55 189.89,88.83 190.13,89.11 190.27,89.44 190.40,89.78 190.42,90.15 190.44,90.51 190.35,90.86 190.25,91.21 190.05,91.51 189.85,91.81 189.56,92.04 189.27,92.26 188.92,92.37 188.58,92.49 188.58,92.49 188.58,92.49 186.71,92.77 184.84,93.04 182.30,93.35 179.75,93.66 175.55,94.01 171.35,94.36 165.06,94.54 158.77,94.71 150.01,94.25 141.25,93.79 129.74,91.90 118.22,90.01 103.95,85.52 89.68,81.02 74.02,72.86 58.35,64.70 46.51,55.61 34.67,46.52 26.55,38.20 18.42,29.87 13.04,22.99 7.65,16.11 4.19,10.88 0.74,5.66 -1.36,2.03 -3.47,-1.58 -4.67,-3.83 -5.87,-6.08 -6.49,-7.83 -7.10,-9.58 -7.17,-9.78 -7.24,-9.98 -7.27,-10.19 -7.29,-10.40 -7.26,-10.61 -7.23,-10.82 -7.15,-11.02 -7.07,-11.22 -6.95,-11.39 -6.83,-11.56 -6.67,-11.70 -6.50,-11.84 -6.32,-11.94 -6.13,-12.03 -5.92,-12.08 -5.71,-12.13 -5.50,-12.12 -5.29,-12.12 -5.08,-12.07 -4.88,-12.01 -4.69,-11.91 -4.50,-11.81 -4.35,-11.67 -4.19,-11.52 -4.07,-11.35 Z" fill="#ff9433" stroke="#ff9433" stroke-width="0" stroke-dasharray="none" stroke-dashoffset="none" stroke-linecap="round" stroke-linejoin="round" pointer-events="none"/><g><path d="M 174.94,83.98577651584385 L 189.76,90.03 177.11,99.83756174773379" fill="none" stroke="#ff9433" stroke-width="4.23" stroke-linecap="round" stroke-linejoin="round" pointer-events="none"/></g></g></g><g id="33fb5beb-7e91-41b9-07b3-cc935eb2f780_svg" class="tl-centered-g" transform="translate(319.48, 321.67) rotate(0.00, 93.25, 18.62)"><defs><mask id="33fb5beb-7e91-41b9-07b3-cc935eb2f780_clip"><rect x="-100" y="-100" width="386.51" height="237.24" fill="white"/><rect x="93.25" y="18.62" width="0" height="0" rx="4" ry="4" fill="black" opacity="1"/></mask></defs><g pointer-events="none" opacity="1" mask=""><path d="M -0.17,36.34 Q -0.17,36.34 22.89,31.77 45.97,27.20 69.04,22.62 92.12,18.04 115.19,13.45 138.26,8.87 161.33,4.28 184.40,-0.31 184.52,-0.31 184.64,-0.31 184.75,-0.28 184.86,-0.25 184.95,-0.18 185.05,-0.11 185.11,-0.02 185.18,0.06 185.22,0.17 185.25,0.28 185.25,0.40 185.25,0.52 185.21,0.63 185.17,0.73 185.10,0.83 185.03,0.92 184.93,0.98 184.83,1.04 184.72,1.07 184.61,1.10 184.49,1.09 184.38,1.08 184.27,1.04 184.16,0.99 184.08,0.92 183.99,0.84 183.93,0.74 183.87,0.64 183.85,0.52 183.83,0.41 183.84,0.30 183.86,0.18 183.91,0.08 183.96,-0.02 184.04,-0.10 184.12,-0.18 184.23,-0.23 184.33,-0.29 184.44,-0.30 184.56,-0.32 184.67,-0.30 184.79,-0.28 184.89,-0.22 184.99,-0.16 185.07,-0.08 185.14,0.00 185.19,0.10 185.24,0.21 185.25,0.32 185.26,0.44 185.23,0.55 185.20,0.66 185.14,0.76 185.08,0.86 184.99,0.93 184.90,1.01 184.79,1.05 184.68,1.09 184.68,1.09 184.68,1.09 161.62,5.71 138.55,10.33 115.49,14.96 92.42,19.58 69.36,24.22 46.30,28.85 23.24,33.49 0.17,38.13 0.06,38.14 -0.04,38.15 -0.14,38.13 -0.25,38.11 -0.36,38.07 -0.46,38.03 -0.54,37.96 -0.63,37.89 -0.70,37.81 -0.77,37.72 -0.82,37.62 -0.87,37.52 -0.89,37.41 -0.91,37.30 -0.90,37.19 -0.90,37.08 -0.87,36.98 -0.84,36.87 -0.78,36.78 -0.73,36.68 -0.65,36.60 -0.57,36.52 -0.48,36.46 -0.38,36.41 -0.28,36.37 Z" fill="#ff9433" stroke="#ff9433" stroke-width="2.11" stroke-dasharray="none" stroke-dashoffset="none" stroke-linecap="round" stroke-linejoin="round" pointer-events="stroke"/><g><path d="M 171.35,-5.132025061373771 L 186.51,0 174.48,10.558267985862338" fill="none" stroke="#ff9433" stroke-width="4.23" stroke-linecap="round" stroke-linejoin="round" pointer-events="none"/></g></g></g><g id="4b258c71-8e71-4fa4-226b-710c4a67e237_svg" class="tl-centered-g" transform="translate(321.57, 382.29) rotate(0.00, 92.20, 16.35)"><defs><mask id="4b258c71-8e71-4fa4-226b-710c4a67e237_clip"><rect x="-100" y="-100" width="384.4" height="232.7" fill="white"/><rect x="92.2" y="16.35" width="0" height="0" rx="4" ry="4" fill="black" opacity="1"/></mask></defs><g pointer-events="none" opacity="1" mask=""><path d="M 0.15,-0.87 Q 0.15,-0.87 22.95,3.21 45.74,7.29 68.54,11.36 91.34,15.44 114.14,19.50 136.94,23.57 159.74,27.63 182.54,31.69 182.65,31.72 182.75,31.76 182.83,31.82 182.92,31.89 182.98,31.98 183.04,32.07 183.07,32.18 183.09,32.28 183.09,32.39 183.08,32.50 183.04,32.60 183.00,32.70 182.92,32.78 182.85,32.86 182.76,32.92 182.67,32.97 182.56,32.99 182.45,33.02 182.35,33.00 182.24,32.99 182.14,32.94 182.04,32.90 181.96,32.82 181.89,32.74 181.84,32.65 181.79,32.55 181.77,32.44 181.76,32.34 181.77,32.23 181.79,32.12 181.85,32.03 181.90,31.93 181.98,31.86 182.06,31.79 182.16,31.74 182.25,31.70 182.36,31.69 182.47,31.68 182.58,31.70 182.68,31.73 182.77,31.78 182.87,31.84 182.94,31.92 183.00,32.01 183.04,32.11 183.08,32.21 183.09,32.32 183.09,32.43 183.06,32.53 183.03,32.64 182.97,32.72 182.91,32.81 182.82,32.88 182.73,32.94 182.63,32.98 182.53,33.01 182.42,33.01 182.31,33.01 182.31,33.01 182.31,33.01 159.50,28.98 136.70,24.95 113.89,20.93 91.08,16.91 68.27,12.89 45.46,8.88 22.65,4.87 -0.15,0.87 -0.25,0.83 -0.35,0.80 -0.44,0.75 -0.54,0.69 -0.61,0.62 -0.69,0.54 -0.74,0.45 -0.80,0.36 -0.83,0.26 -0.86,0.16 -0.87,0.05 -0.88,-0.04 -0.86,-0.15 -0.84,-0.25 -0.80,-0.35 -0.75,-0.45 -0.69,-0.53 -0.62,-0.62 -0.54,-0.68 -0.46,-0.75 -0.36,-0.79 -0.26,-0.84 -0.16,-0.86 -0.05,-0.88 0.04,-0.87 Z" fill="#ff9433" stroke="#ff9433" stroke-width="2.11" stroke-dasharray="none" stroke-dashoffset="none" stroke-linecap="round" stroke-linejoin="round" pointer-events="stroke"/><g><path d="M 172.15,22.403459735772678 L 184.4,32.7 169.35,38.15766895598027" fill="none" stroke="#ff9433" stroke-width="4.23" stroke-linecap="round" stroke-linejoin="round" pointer-events="none"/></g></g></g></svg>